<svg width="32" height="26" viewBox="0 0 32 26" fill="none" xmlns="http://www.w3.org/2000/svg">
<path d="M2 0C0.88 0 0 0.796081 0 1.80927C0 2.82247 0.88 3.61855 2 3.61855C3.12 3.61855 4 2.82247 4 1.80927C4 0.796081 3.12 0 2 0ZM8 0V3.61855H32V0H8ZM2 7.2371C0.88 7.2371 0 8.03318 0 9.04637C0 10.0596 0.88 10.8556 2 10.8556C3.12 10.8556 4 10.0596 4 9.04637C4 8.03318 3.12 7.2371 2 7.2371ZM8 7.2371V10.8556H32V7.2371H8ZM2 14.4742C0.88 14.4742 0 15.2703 0 16.2835C0 17.2967 0.88 18.0927 2 18.0927C3.12 18.0927 4 17.2967 4 16.2835C4 15.2703 3.12 14.4742 2 14.4742ZM8 14.4742V18.0927H32V14.4742H8ZM2 21.7113C0.88 21.7113 0 22.5074 0 23.5206C0 24.5338 0.88 25.3298 2 25.3298C3.12 25.3298 4 24.5338 4 23.5206C4 22.5074 3.12 21.7113 2 21.7113ZM8 21.7113V25.3298H32V21.7113H8Z" fill="#231F20"/>
</svg>
